HIERARCHY
ROOT SimulationBone
{
	OFFSET 0.000000 0.000000 0.000000
	CHANNELS 6 Xposition Yposition Zposition Zrotation Yrotation Xrotation 
	JOINT Hips
	{
		OFFSET 0.000000 0.000000 0.000000
		CHANNELS 6 Xposition Yposition Zposition Zrotation Yrotation Xrotation 
		JOINT RightUpLeg
		{
			OFFSET 0.103458 1.857820 10.548502
			CHANNELS 3 Zrotation Yrotation Xrotation
			JOINT RightLeg
			{
				OFFSET 43.500000 -0.000023 -0.000011
				CHANNELS 3 Zrotation Yrotation Xrotation
				JOINT RightFoot
				{
					OFFSET 42.372192 0.000038 0.000002
					CHANNELS 3 Zrotation Yrotation Xrotation
					JOINT RightToe
					{
						OFFSET 17.299992 -0.000004 0.000006
						CHANNELS 3 Zrotation Yrotation Xrotation
						End Site
						{
							OFFSET 0.000000 0.000000 0.000000
						}
					}
				}
			}
		}
		JOINT LeftUpLeg
		{
			OFFSET 0.103461 1.857814 -10.548508
			CHANNELS 3 Zrotation Yrotation Xrotation
			JOINT LeftLeg
			{
				OFFSET 43.500042 -0.000015 0.000008
				CHANNELS 3 Zrotation Yrotation Xrotation
				JOINT LeftFoot
				{
					OFFSET 42.372253 0.000008 0.000006
					CHANNELS 3 Zrotation Yrotation Xrotation
					JOINT LeftToe
					{
						OFFSET 17.299973 -0.000014 0.000011
						CHANNELS 3 Zrotation Yrotation Xrotation
						End Site
						{
							OFFSET 0.000000 0.000000 0.000000
						}
					}
				}
			}
		}
		JOINT Spine
		{
			OFFSET 6.901966 -2.603737 -0.000007
			CHANNELS 3 Zrotation Yrotation Xrotation
			JOINT Spine1
			{
				OFFSET 12.588102 0.000017 0.000001
				CHANNELS 3 Zrotation Yrotation Xrotation
				JOINT Spine2
				{
					OFFSET 12.343197 -0.000013 0.000000
					CHANNELS 3 Zrotation Yrotation Xrotation
					JOINT Neck
					{
						OFFSET 25.832905 -0.000008 0.000000
						CHANNELS 3 Zrotation Yrotation Xrotation
						JOINT Head
						{
							OFFSET 11.766610 0.000009 -0.000002
							CHANNELS 3 Zrotation Yrotation Xrotation
							End Site
							{
								OFFSET 0.000000 0.000000 0.000000
							}
						}
					}
					JOINT RightShoulder
					{
						OFFSET 19.745903 -1.480377 6.000115
						CHANNELS 3 Zrotation Yrotation Xrotation
						JOINT RightArm
						{
							OFFSET 11.284125 -0.000014 -0.000024
							CHANNELS 3 Zrotation Yrotation Xrotation
							JOINT RightForeArm
							{
								OFFSET 33.000046 -0.000012 0.000029
								CHANNELS 3 Zrotation Yrotation Xrotation
								JOINT RightHand
								{
									OFFSET 25.199989 0.000034 0.000012
									CHANNELS 3 Zrotation Yrotation Xrotation
									End Site
									{
										OFFSET 0.000000 0.000000 0.000000
									}
								}
							}
						}
					}
					JOINT LeftShoulder
					{
						OFFSET 19.746098 -1.480362 -6.000071
						CHANNELS 3 Zrotation Yrotation Xrotation
						JOINT LeftArm
						{
							OFFSET 11.284137 -0.000006 -0.000008
							CHANNELS 3 Zrotation Yrotation Xrotation
							JOINT LeftForeArm
							{
								OFFSET 33.000095 0.000017 0.000000
								CHANNELS 3 Zrotation Yrotation Xrotation
								JOINT LeftHand
								{
									OFFSET 25.199778 0.000144 0.000423
									CHANNELS 3 Zrotation Yrotation Xrotation
									End Site
									{
										OFFSET 0.000000 0.000000 0.000000
									}
								}
							}
						}
					}
				}
			}
		}
	}
}
MOTION
Frames: 14
Frame Time: 0.033333
-262.082999 0.000000 78.008615 0.000000 86.242919 0.000000 -15.782384 86.898537 3.203634 69.601852 9.003608 -172.335564 -171.442871 -5.911809 177.073597 -28.877432 -2.760241 -6.191343 66.936182 2.051249 -7.018496 21.454548 0.003111 0.000016 117.259117 -4.515111 176.427994 -56.379339 3.516681 6.241514 75.675955 -2.732139 6.453848 21.454551 -0.003097 -0.000001 11.974397 2.482559 -2.921091 13.822363 5.296454 -5.529467 13.504432 5.262894 -5.561306 -16.974663 9.059250 10.978021 -22.465319 -8.425368 17.556520 -159.555077 -78.464025 -22.307009 -42.049363 27.810814 -10.608103 -122.644898 2.481197 3.594733 -16.732913 -0.398187 32.051861 -162.188962 77.821406 19.674322 43.263661 -35.355129 -80.068108 -59.720012 11.930988 -1.879667 -12.719465 2.813932 -30.507358 
-262.002117 0.000000 69.568436 0.000000 86.811353 0.000000 -13.995986 86.081932 2.763690 72.343897 8.366862 -173.065612 -170.045278 -4.472192 -178.441984 -42.959093 -1.274019 -7.150771 72.516323 4.112945 -3.473957 21.454562 0.003108 0.000014 122.744865 -4.940507 175.578837 -39.060025 3.779345 7.140828 75.108230 -1.914067 11.517494 21.454557 -0.003106 -0.000003 11.770281 2.597626 -2.989473 13.406191 5.524254 -5.663258 13.088201 5.489885 -5.696465 -17.491954 8.819915 11.250572 -21.837739 -8.857219 17.890986 -161.140992 -76.076006 -20.724006 -33.793573 32.540534 -2.182164 -117.713393 1.849868 3.436862 -16.958019 0.513330 33.881150 -162.031007 76.040995 19.855780 42.143271 -38.193902 -74.973730 -59.692951 12.019241 -1.884658 -11.729095 6.839117 -23.056553 
-261.907373 0.000000 61.078894 0.000000 87.347381 0.000000 -12.025800 84.608566 2.377762 76.125666 8.185649 -174.358653 -168.871441 -2.802003 -173.630444 -59.336490 -1.799377 -8.254600 73.219525 4.638144 -4.488261 21.454550 0.003100 0.000019 129.372362 -6.083500 177.481946 -29.422659 4.191447 7.742024 72.037356 -0.767105 15.649625 21.454553 -0.003090 0.000000 11.721353 2.723799 -2.676643 13.320131 5.737723 -5.027074 13.001663 5.707157 -5.061621 -16.708202 8.238445 11.051748 -22.484986 -9.250839 17.697589 -162.498055 -74.005612 -19.359008 -25.772203 36.955930 5.996443 -110.839203 0.745450 3.221166 -16.755359 1.677723 35.723549 -160.836065 73.879110 21.105599 38.692048 -41.783245 -68.454724 -58.695941 12.327070 -1.869125 -8.997637 10.725130 -12.120455 
-261.799767 0.000000 52.544963 0.000000 87.851730 0.000000 -10.288752 82.810081 2.055876 79.527660 8.535260 -176.781366 -169.814253 -1.533988 -175.158357 -77.016516 -0.072206 -8.620307 72.272793 4.914094 -4.147033 21.454558 0.003108 0.000014 132.457135 -8.007709 -175.160666 -38.650654 4.433119 4.962117 68.305935 -4.783244 -3.030102 21.454555 -0.003095 0.000001 11.435937 2.818481 -1.964642 12.783292 5.836736 -3.609534 12.464090 5.814717 -3.644781 -14.758319 6.753035 10.622030 -22.959881 -8.990428 16.646207 -159.625004 -71.763493 -22.338989 -19.068763 40.700786 14.410731 -102.371401 -0.995451 2.969912 -17.005141 2.356043 36.331719 -160.120002 71.515906 21.874576 33.909943 -44.685734 -59.347801 -58.595407 12.438047 -1.872989 -5.362343 13.006155 -2.535122 
-261.680296 0.000000 43.971617 0.000000 88.325202 0.000000 -8.542675 81.059792 2.150397 83.193158 9.255506 -179.095838 -172.158757 -3.130083 179.032563 -93.940359 3.883538 -9.009647 74.487099 5.220834 -3.692799 21.454553 0.003114 0.000022 136.591967 -10.207506 -173.349081 -51.817927 3.893343 3.394949 81.087275 -3.415432 -3.991985 21.454548 -0.003079 0.000002 11.143992 2.949026 -1.182945 12.238011 6.006550 -2.049279 11.918234 5.993936 -2.085633 -10.970923 4.898132 9.927830 -25.529741 -8.962526 15.548229 -157.979967 -70.211893 -24.057989 -11.229874 44.082758 22.070518 -93.565156 -2.866334 2.706692 -16.590058 2.340258 37.191275 -158.542023 69.703003 23.529773 26.431246 -48.138128 -48.872882 -58.926337 13.704585 -1.970828 -2.536843 13.939493 2.267191 
-261.549958 0.000000 35.363829 0.000000 88.768660 0.000000 -7.120065 80.462860 2.158871 85.395660 9.814669 179.579884 -178.715684 -5.126205 176.952539 -108.064289 5.450448 -10.698938 76.257587 6.960014 -1.488214 21.454557 0.003104 0.000018 143.958203 -11.715108 -174.856272 -56.414497 4.931256 3.113058 89.755775 -2.987718 -4.669208 21.454550 -0.003081 0.000001 10.746057 3.137574 -0.719365 11.465552 6.330878 -1.125195 11.145395 6.323826 -1.163555 -10.995185 3.308785 9.573560 -24.381282 -8.689831 14.498446 -157.360974 -67.656207 -24.745970 -2.646246 45.500579 31.471131 -84.943491 -8.271484 2.700571 -16.649795 1.152046 37.337236 -160.932016 68.061995 21.085566 15.335457 -50.318594 -33.836358 -61.002134 14.375593 -2.093426 -3.539047 12.176388 -5.584235 
-261.409751 0.000000 26.726573 0.000000 89.183023 0.000000 -6.292516 80.885948 1.977053 86.255426 8.946928 178.435524 170.608249 -5.569790 176.889906 -117.398999 5.931417 -12.234207 77.005964 8.276542 -0.400073 21.454570 0.003106 0.000010 152.616356 -11.527290 -176.512811 -55.709984 4.933124 2.447711 95.338581 -2.289211 -4.794821 21.454555 -0.003092 -0.000002 10.147080 2.902599 -0.287750 10.286505 5.819213 -0.316282 9.966609 5.817062 -0.351546 -11.878584 2.548666 8.639051 -22.086953 -8.644317 13.088765 -153.849000 -66.472890 -28.409053 5.976357 46.077556 38.744736 -78.723374 -11.386707 2.645807 -16.921302 -0.020252 38.982840 -163.150024 68.375801 18.787100 5.561742 -51.690612 -24.028392 -66.752094 13.418063 -2.250611 -5.207506 8.472452 -12.816958 
-261.260673 0.000000 18.064824 0.000000 89.569244 0.000000 -5.767846 82.162697 1.688778 86.494793 7.011277 176.325892 158.815436 -5.537195 175.920961 -119.473601 5.935577 -12.705579 77.412162 8.496133 -0.814020 21.454558 0.003111 0.000016 162.471308 -10.034896 179.690816 -50.334922 5.493681 1.988914 97.319356 -1.896962 -4.860676 21.454551 -0.003089 0.000001 9.470492 2.232436 0.535573 8.958813 4.416735 1.243338 8.639763 4.424015 1.216594 -13.000047 1.712942 6.933048 -19.159283 -8.395357 10.744840 -150.817025 -66.328315 -31.553954 13.330684 43.732544 44.670503 -76.154553 -12.085596 2.583766 -17.339390 -0.318051 37.219210 -163.536981 69.871606 18.373002 -0.850897 -53.087591 -20.415125 -75.070664 11.609468 -2.467255 -5.777550 3.425391 -19.333212 
-261.103723 0.000000 9.383553 0.000000 89.927887 0.000000 -5.124532 84.263588 1.217201 86.674926 4.304792 173.766464 148.985496 -5.146904 173.809053 -113.698006 5.493723 -12.280877 77.412961 7.920297 -2.069463 21.454558 0.003103 0.000014 172.638400 -7.502708 175.668149 -42.096474 4.669168 2.159245 92.915100 -2.015860 -3.543105 21.454550 -0.003100 0.000002 8.827348 1.301061 1.468899 7.676734 2.502028 3.021430 7.358776 2.520087 3.006264 -14.130931 -0.230305 5.470755 -15.284461 -6.332248 7.613733 -147.766963 -66.380792 -34.709956 17.719918 39.849690 49.412730 -75.090403 -12.236953 2.548814 -17.260013 -1.200947 36.504113 -165.737067 71.695895 16.092778 -3.892924 -54.684964 -17.266298 -83.956501 7.345856 -2.552469 -6.050600 -1.660325 -24.232934 
-260.939897 0.000000 0.687736 0.000000 90.261860 0.000000 -4.151770 86.542664 0.627454 87.761543 1.667723 172.009112 143.781711 -3.998401 172.858168 -101.653794 3.923629 -11.139980 76.344337 6.899429 -3.221510 21.454553 0.003116 0.000017 -177.322434 -3.787502 172.569797 -33.590129 4.512237 2.902885 81.177836 -2.713842 -2.530742 21.454550 -0.003086 -0.000003 8.495697 0.466377 2.165016 6.994009 0.801459 4.354248 6.676864 0.827574 4.349333 -16.122267 -3.146863 4.859922 -10.771791 -2.976243 4.721903 -144.307977 -66.548206 -38.281991 19.859313 36.774565 53.292548 -74.038854 -12.500463 2.522467 -17.371196 -1.614364 37.028375 -168.489005 73.543782 13.259269 -7.623254 -55.761630 -14.537788 -90.944946 3.105527 -2.564262 -6.411525 -4.169343 -24.239983 
-260.770196 0.000000 -8.017655 0.000000 90.569974 0.000000 -3.142866 88.582458 0.099750 88.385568 -0.767903 171.603553 141.734512 -1.598902 175.789549 -85.004641 -0.383297 -10.357828 74.582592 5.849051 -5.421460 21.454562 0.003089 0.000026 -169.986975 0.435301 174.255461 -28.204161 4.232548 2.016965 68.005099 -1.151765 1.128835 21.454550 -0.003084 -0.000002 8.037434 -0.177112 2.482777 6.051676 -0.483172 4.952934 5.734844 -0.453423 4.955742 -16.788561 -5.621155 4.432227 -6.603461 -1.095988 2.840156 -143.673958 -66.656513 -38.932990 22.198274 33.232285 56.681746 -73.638079 -12.769662 2.524259 -17.394508 -1.468017 37.099060 -173.150022 75.566522 8.489994 -10.388825 -56.494311 -15.040640 -96.262883 1.676282 -2.700786 -6.089068 -4.967662 -22.463136 
-260.595615 0.000000 -16.727645 0.000000 90.854337 0.000000 -1.969435 90.129051 -0.141467 88.218267 -1.181521 171.900249 142.776335 -0.883505 178.567906 -64.559290 -3.026806 -10.256799 74.378199 5.318974 -7.275596 21.454557 0.003108 0.000013 -165.555712 1.834902 176.951405 -27.760657 3.525408 1.812354 60.349871 2.393413 8.751169 21.454555 -0.003093 -0.000004 7.424907 -0.337455 2.716158 4.818529 -0.786785 5.416131 4.501951 -0.754234 5.420751 -16.669939 -7.790274 4.376226 -3.724848 0.883616 1.584032 -142.362070 -67.307621 -40.261004 24.138264 30.582558 59.851145 -74.063955 -12.320888 2.511035 -17.790746 -1.498683 37.712364 -176.454946 77.280694 5.130010 -11.852183 -56.619256 -16.476937 -101.912003 0.755950 -2.887359 -5.820513 -6.286153 -23.503615 
-260.417154 0.000000 -25.437261 0.000000 91.116042 0.000000 -0.738156 90.650330 -0.074226 88.364069 -0.052676 172.019082 147.192557 -1.766010 177.786532 -41.487016 -1.926930 -7.768647 74.615158 3.969399 -5.739436 21.454558 0.003111 0.000017 -163.025318 0.444403 177.265511 -31.368433 1.996067 1.645056 56.332972 3.329655 9.639593 21.454551 -0.003090 0.000000 6.955869 -0.180809 2.943944 3.887219 -0.459181 5.880251 3.570920 -0.423867 5.882902 -17.011155 -8.816712 4.323721 -0.772889 2.570876 0.834299 -139.821035 -67.885599 -42.854984 25.130423 28.250503 62.044619 -75.904036 -11.622269 2.540701 -17.806790 -0.865250 38.749507 -178.608026 77.960729 2.944291 -12.663471 -55.469435 -17.656357 -108.373901 0.001873 -3.118323 -5.257805 -7.841894 -26.591755 
-260.235811 0.000000 -34.141530 0.000000 91.356247 0.000000 0.193278 90.401894 0.118532 89.306702 0.940885 172.092455 153.314210 -2.252500 -177.984075 -19.821926 -3.264709 -8.626131 74.987540 4.532850 -6.142207 21.454555 0.003100 0.000017 -162.367995 -1.475294 173.856865 -39.667693 1.649095 1.020913 61.928034 2.070633 6.800018 21.454557 -0.003088 -0.000001 6.748807 -0.008803 3.047718 3.481961 -0.107941 6.093803 3.165812 -0.071338 6.094334 -16.944774 -9.005513 4.039032 1.018689 2.875079 0.480238 -137.578970 -68.424596 -45.137951 25.645619 26.720593 62.217170 -78.969431 -10.292593 2.579984 -17.519080 0.744498 39.866919 -179.843020 78.447147 1.695373 -12.850909 -54.366257 -18.778318 -114.055294 -0.393338 -3.334333 -6.404215 -7.035269 -28.979536 
